<svg width="60" height="13" viewBox="0 0 60 13" fill="none" xmlns="http://www.w3.org/2000/svg">
<path d="M5.83863 2.08039C5.23063 2.08039 4.68129 2.18706 4.19063 2.40039C3.69996 2.60306 3.28396 2.90706 2.94263 3.31239C2.60129 3.70706 2.33996 4.19239 2.15863 4.76839C1.97729 5.33372 1.88663 5.97372 1.88663 6.68839C1.88663 7.62706 2.03063 8.44306 2.31863 9.13639C2.61729 9.82972 3.05463 10.3631 3.63063 10.7364C4.21729 11.1097 4.94796 11.2964 5.82263 11.2964C6.32396 11.2964 6.79863 11.2537 7.24663 11.1684C7.69463 11.0831 8.13196 10.9764 8.55863 10.8484V12.0964C8.13196 12.2564 7.68929 12.3737 7.23063 12.4484C6.78263 12.5231 6.24396 12.5604 5.61463 12.5604C4.45196 12.5604 3.48129 12.3204 2.70263 11.8404C1.92396 11.3604 1.33729 10.6777 0.942625 9.79239C0.558625 8.90706 0.366625 7.86706 0.366625 6.67239C0.366625 5.80839 0.483958 5.01906 0.718625 4.30439C0.963958 3.58972 1.31596 2.97106 1.77463 2.44839C2.24396 1.92572 2.81996 1.52572 3.50262 1.24839C4.18529 0.96039 4.96929 0.81639 5.85463 0.81639C6.44129 0.81639 7.00663 0.875057 7.55063 0.99239C8.09463 1.10972 8.57996 1.27506 9.00663 1.48839L8.43062 2.70439C8.07863 2.54439 7.68396 2.40039 7.24663 2.27239C6.81996 2.14439 6.35063 2.08039 5.83863 2.08039ZM14.108 3.68039C15.1533 3.68039 15.9267 3.90972 16.428 4.36839C16.9293 4.82706 17.18 5.55772 17.18 6.56039V12.4004H16.156L15.884 11.1844H15.82C15.5747 11.4937 15.3187 11.7551 15.052 11.9684C14.796 12.1711 14.4973 12.3204 14.156 12.4164C13.8253 12.5124 13.42 12.5604 12.94 12.5604C12.428 12.5604 11.964 12.4697 11.548 12.2884C11.1427 12.1071 10.8227 11.8297 10.588 11.4564C10.3533 11.0724 10.236 10.5924 10.236 10.0164C10.236 9.16306 10.572 8.50706 11.244 8.04839C11.916 7.57906 12.9507 7.32306 14.348 7.28039L15.804 7.23239V6.72039C15.804 6.00572 15.6493 5.50972 15.34 5.23239C15.0307 4.95506 14.5933 4.81639 14.028 4.81639C13.58 4.81639 13.1533 4.88572 12.748 5.02439C12.3427 5.15239 11.964 5.30172 11.612 5.47239L11.18 4.41639C11.5533 4.21372 11.996 4.04306 12.508 3.90439C13.02 3.75506 13.5533 3.68039 14.108 3.68039ZM14.524 8.25639C13.4573 8.29906 12.716 8.46972 12.3 8.76839C11.8947 9.06706 11.692 9.48839 11.692 10.0324C11.692 10.5124 11.836 10.8644 12.124 11.0884C12.4227 11.3124 12.8013 11.4244 13.26 11.4244C13.9853 11.4244 14.588 11.2271 15.068 10.8324C15.548 10.4271 15.788 9.80839 15.788 8.97639V8.20839L14.524 8.25639ZM25.0608 3.82439V5.00839H21.2368V12.4004H19.8288V3.82439H25.0608ZM30.0344 12.5604C29.277 12.5604 28.5997 12.4057 28.0024 12.0964C27.4157 11.7871 26.9517 11.3071 26.6104 10.6564C26.2797 10.0057 26.1144 9.17372 26.1144 8.16039C26.1144 7.10439 26.2904 6.24572 26.6424 5.58439C26.9944 4.92306 27.469 4.43772 28.0664 4.12839C28.6744 3.81906 29.3624 3.66439 30.1304 3.66439C30.5677 3.66439 30.989 3.71239 31.3944 3.80839C31.7997 3.89372 32.1304 4.00039 32.3864 4.12839L31.9544 5.29639C31.6984 5.20039 31.3997 5.10972 31.0584 5.02439C30.717 4.93906 30.397 4.89639 30.0984 4.89639C29.5224 4.89639 29.0477 5.01906 28.6744 5.26439C28.301 5.50972 28.0237 5.87239 27.8424 6.35239C27.661 6.83239 27.5704 7.42972 27.5704 8.14439C27.5704 8.82706 27.661 9.40839 27.8424 9.88839C28.0237 10.3684 28.2957 10.7311 28.6584 10.9764C29.021 11.2217 29.4744 11.3444 30.0184 11.3444C30.4877 11.3444 30.8984 11.2964 31.2504 11.2004C31.613 11.1044 31.9437 10.9871 32.2424 10.8484V12.0964C31.9544 12.2457 31.6344 12.3577 31.2824 12.4324C30.941 12.5177 30.525 12.5604 30.0344 12.5604ZM40.8099 12.4004H39.3859V4.99239H36.8579C36.7512 6.34706 36.6179 7.50439 36.4579 8.46439C36.2979 9.41372 36.0952 10.1871 35.8499 10.7844C35.6045 11.3817 35.3112 11.8191 34.9699 12.0964C34.6285 12.3737 34.2285 12.5124 33.7699 12.5124C33.6312 12.5124 33.4925 12.5017 33.3539 12.4804C33.2259 12.4697 33.1192 12.4431 33.0339 12.4004V11.3444C33.0979 11.3657 33.1672 11.3817 33.2419 11.3924C33.3165 11.4031 33.3912 11.4084 33.4659 11.4084C33.7005 11.4084 33.9139 11.3124 34.1059 11.1204C34.2979 10.9284 34.4685 10.6351 34.6179 10.2404C34.7779 9.84572 34.9219 9.34972 35.0499 8.75239C35.1779 8.14439 35.2899 7.42972 35.3859 6.60839C35.4819 5.78706 35.5672 4.85906 35.6419 3.82439H40.8099V12.4004ZM46.7799 3.68039C47.8252 3.68039 48.5985 3.90972 49.0999 4.36839C49.6012 4.82706 49.8519 5.55772 49.8519 6.56039V12.4004H48.8279L48.5559 11.1844H48.4919C48.2465 11.4937 47.9905 11.7551 47.7239 11.9684C47.4679 12.1711 47.1692 12.3204 46.8279 12.4164C46.4972 12.5124 46.0919 12.5604 45.6119 12.5604C45.0999 12.5604 44.6359 12.4697 44.2199 12.2884C43.8145 12.1071 43.4945 11.8297 43.2599 11.4564C43.0252 11.0724 42.9079 10.5924 42.9079 10.0164C42.9079 9.16306 43.2439 8.50706 43.9159 8.04839C44.5879 7.57906 45.6225 7.32306 47.0199 7.28039L48.4759 7.23239V6.72039C48.4759 6.00572 48.3212 5.50972 48.0119 5.23239C47.7025 4.95506 47.2652 4.81639 46.6999 4.81639C46.2519 4.81639 45.8252 4.88572 45.4199 5.02439C45.0145 5.15239 44.6359 5.30172 44.2839 5.47239L43.8519 4.41639C44.2252 4.21372 44.6679 4.04306 45.1799 3.90439C45.6919 3.75506 46.2252 3.68039 46.7799 3.68039ZM47.1959 8.25639C46.1292 8.29906 45.3879 8.46972 44.9719 8.76839C44.5665 9.06706 44.3639 9.48839 44.3639 10.0324C44.3639 10.5124 44.5079 10.8644 44.7959 11.0884C45.0945 11.3124 45.4732 11.4244 45.9319 11.4244C46.6572 11.4244 47.2599 11.2271 47.7399 10.8324C48.2199 10.4271 48.4599 9.80839 48.4599 8.97639V8.20839L47.1959 8.25639ZM54.5326 8.01639L51.5726 3.82439H53.1726L55.3806 7.05639L57.5726 3.82439H59.1566L56.1966 8.01639L59.3166 12.4004H57.7166L55.3806 8.97639L53.0126 12.4004H51.4286L54.5326 8.01639Z" fill="white"/>
<path d="M-0.609375 14.4004H59.6046V15.2004H-0.609375V14.4004Z" fill="white"/>
</svg>
